<svg width="13" height="20" viewBox="0 0 13 20" fill="none" xmlns="http://www.w3.org/2000/svg">
<path d="M10.2037 6.25974C9.67874 5.87013 9.15379 5.58442 8.66165 5.37662C8.16951 5.19481 7.61176 5.09091 6.98838 5.09091C6.26658 5.09091 5.74163 5.22078 5.38072 5.45455C5.01982 5.68831 4.82297 6.07792 4.82297 6.5974C4.82297 6.96104 5.01982 7.2987 5.41353 7.53247C5.80725 7.79221 6.26658 8.02597 6.85714 8.25974C7.44771 8.49351 8.07109 8.72727 8.72727 8.98701C9.38346 9.24675 10.0068 9.53247 10.5974 9.8961C11.188 10.2597 11.6473 10.6753 12.041 11.1948C12.4347 11.7143 12.6316 12.3377 12.6316 13.0649C12.6316 14.1818 12.2379 15.1429 11.4833 15.9481C10.7286 16.7532 9.54751 17.2727 8.03828 17.5584V20H5.18387V17.6623C4.33083 17.5844 3.41217 17.4026 2.4607 17.0909C1.50923 16.7792 0.688995 16.3896 0 15.8961L1.90294 13.5844C2.65755 14.026 3.37936 14.3636 4.03554 14.5974C4.72454 14.8312 5.41353 14.9351 6.10253 14.9351C6.92276 14.9351 7.54614 14.8052 7.90704 14.5455C8.30075 14.2857 8.49761 13.8701 8.49761 13.3247C8.49761 12.9091 8.30075 12.5714 7.90704 12.2857C7.51333 12 7.054 11.7403 6.46343 11.4805C5.87286 11.2208 5.24949 10.961 4.5933 10.7013C3.93712 10.4416 3.31374 10.1299 2.72317 9.76623C2.1326 9.4026 1.67327 8.98701 1.27956 8.49351C0.885851 8 0.688995 7.42857 0.688995 6.72727C0.688995 5.58442 1.08271 4.62338 1.87013 3.87013C2.65755 3.11688 3.77307 2.62338 5.15106 2.41558V0H8.00547V2.36364C8.95694 2.46753 9.77717 2.7013 10.499 3.03896C11.2208 3.37662 11.8442 3.79221 12.4347 4.28571L10.2037 6.25974Z" fill="#333B41"/>
</svg>
